<?xml version="1.0" standalone="no"?>
<!DOCTYPE svg PUBLIC "-//W3C//DTD SVG 20010904//EN"
 "http://www.w3.org/TR/2001/REC-SVG-20010904/DTD/svg10.dtd">
<svg version="1.0" xmlns="http://www.w3.org/2000/svg"
 width="1280.000000pt" height="1014.000000pt" viewBox="0 0 1280.000000 1014.000000"
 preserveAspectRatio="xMidYMid meet">
<g transform="translate(0.000000,1014.000000) scale(0.100000,-0.100000)"
fill="#000000" stroke="none">
<path d="M8589 10136 c-2 -3 -37 -12 -76 -20 -39 -8 -83 -22 -97 -32 -15 -9
-42 -49 -61 -90 l-35 -74 -618 0 c-750 0 -998 -12 -1312 -61 -323 -51 -711
-177 -1134 -368 -417 -189 -495 -239 -721 -460 -115 -113 -210 -195 -292 -255
-68 -48 -144 -112 -170 -142 -155 -178 -257 -435 -498 -1259 -70 -236 -189
-639 -265 -895 -76 -256 -209 -706 -295 -1000 -86 -294 -165 -566 -177 -604
-19 -67 -23 -72 -141 -186 -67 -64 -205 -192 -307 -285 -102 -93 -221 -203
-265 -244 -907 -861 -926 -878 -1390 -1254 -451 -365 -599 -499 -671 -607 -39
-57 -64 -108 -64 -129 0 -26 54 -85 157 -170 79 -67 114 -88 207 -127 61 -25
152 -63 201 -84 88 -37 915 -423 1210 -564 83 -40 240 -121 349 -180 465 -252
604 -314 1071 -481 886 -315 1561 -481 2175 -534 63 -6 176 -15 251 -22 357
-31 1395 77 1853 192 581 147 971 396 1561 1000 502 514 1038 1185 1513 1894
73 110 139 203 145 206 7 3 75 2 152 -3 77 -5 322 -9 545 -10 423 -2 494 3
831 52 220 32 253 64 345 333 89 258 170 818 204 1412 6 105 15 242 20 307 13
148 13 320 0 484 -5 71 -14 201 -20 289 -31 439 -99 858 -186 1135 -78 247
-149 340 -414 537 -218 161 -248 199 -385 474 -48 96 -109 204 -136 241 -142
191 -572 525 -979 760 -403 233 -945 434 -1420 528 -58 11 -115 23 -128 25
-21 5 -22 9 -16 53 5 39 2 52 -16 75 -38 48 -144 92 -305 127 -81 18 -185 26
-196 16z"/>
</g>
</svg>
